<svg viewBox="1940 -3 100 200" xmlns="http://www.w3.org/2000/svg">
    <!-- Pre-1958 Teams¹, single season teams², privateer teams³, and Indianapolis 500 teams⁴ not shown -->
    <!-- ¹ Constructor's title started in 1958; Where possible, I have shown pre-1958 information for post-1958 teams -->
    <!-- ² To reduce the complexity of the chart -->
    <!-- ³ Where possible, I have shown constructors' history as former privateer teams -->
    <!-- ⁴ The Indianapolis 500 was part of the World Drivers' Championship until 1960 -->
    <style>
        path {
            fill: none;
            stroke-linejoin: round;
        }

        text {
            font-family: sans-serif;
        }

        g.grid>path {
            stroke: black;
            stroke-width: 0.1;
            stroke-linecap: round;
        }

        g.grid>text {
            font-size: 1px;
            transform: rotate(-90deg);
            transform-origin: center;
            transform-box: fill-box;
            text-anchor: middle;
            dominant-baseline: middle;
        }

        g.team>path {
            stroke-width: 2.75;
            stroke-linecap: butt;
        }

        g.team>text {
            fill: white;
            stroke: black;
            stroke-width: 0.075;
            font-size: 2px;
            text-anchor: end;
            dominant-baseline: central;
        }

        g.team>text.small {
            stroke-width: 0.025;
            font-size: 0.9px;
        }

        g.team>text.med {
            stroke-width: 0.025;
            font-size: 1.5px;
        }
    </style>
    <rect x="1940" y="-3" width="100%" height="100%" fill="white" />
    <g class="grid">
        <path class="grid" d="
            M 1950,1 v 592 Z
            M 1951,1 v 592 Z
            M 1952,1 v 592 Z
            M 1953,1 v 592 Z
            M 1954,1 v 592 Z
            M 1955,1 v 592 Z
            M 1956,1 v 592 Z
            M 1957,1 v 592 Z
            M 1958,1 v 592 Z
            M 1959,1 v 592 Z
            M 1960,1 v 592 Z
            M 1961,1 v 592 Z
            M 1962,1 v 592 Z
            M 1963,1 v 592 Z
            M 1964,1 v 592 Z
            M 1965,1 v 592 Z
            M 1966,1 v 592 Z
            M 1967,1 v 592 Z
            M 1968,1 v 592 Z
            M 1969,1 v 592 Z
            M 1970,1 v 592 Z
            M 1971,1 v 592 Z
            M 1972,1 v 592 Z
            M 1973,1 v 592 Z
            M 1974,1 v 592 Z
            M 1975,1 v 592 Z
            M 1976,1 v 592 Z
            M 1977,1 v 592 Z
            M 1978,1 v 592 Z
            M 1979,1 v 592 Z
            M 1980,1 v 592 Z
            M 1981,1 v 592 Z
            M 1982,1 v 592 Z
            M 1983,1 v 592 Z
            M 1984,1 v 592 Z
            M 1985,1 v 592 Z
            M 1986,1 v 592 Z
            M 1987,1 v 592 Z
            M 1988,1 v 592 Z
            M 1989,1 v 592 Z
            M 1990,1 v 592 Z
            M 1991,1 v 592 Z
            M 1992,1 v 592 Z
            M 1993,1 v 592 Z
            M 1994,1 v 592 Z
            M 1995,1 v 592 Z
            M 1996,1 v 592 Z
            M 1997,1 v 592 Z
            M 1998,1 v 592 Z
            M 1999,1 v 592 Z
            M 2000,1 v 592 Z
            M 2001,1 v 592 Z
            M 2002,1 v 592 Z
            M 2003,1 v 592 Z
            M 2004,1 v 592 Z
            M 2005,1 v 592 Z
            M 2006,1 v 592 Z
            M 2007,1 v 592 Z
            M 2008,1 v 592 Z
            M 2009,1 v 592 Z
            M 2010,1 v 592 Z
            M 2011,1 v 592 Z
            M 2012,1 v 592 Z
            M 2013,1 v 592 Z
            M 2014,1 v 592 Z
            M 2015,1 v 592 Z
            M 2016,1 v 592 Z
            M 2017,1 v 592 Z
            M 2018,1 v 592 Z
            M 2019,1 v 592 Z
            M 2020,1 v 592 Z
            M 2021,1 v 592 Z
            M 2022,1 v 592 Z
            M 2023,1 v 592 Z
            M 2024,1 v 592 Z
            M 2025,1 v 592 Z
            M 2026,1 v 592 Z
            M 2027,1 v 592 Z
            M 2028,1 v 592 Z
        " />
        <text x="1950.5" y="-0.5">1950</text>
        <text x="1951.5" y="-0.5">1951</text>
        <text x="1952.5" y="-0.5">1952</text>
        <text x="1953.5" y="-0.5">1953</text>
        <text x="1954.5" y="-0.5">1954</text>
        <text x="1955.5" y="-0.5">1955</text>
        <text x="1956.5" y="-0.5">1956</text>
        <text x="1957.5" y="-0.5">1957</text>
        <text x="1958.5" y="-0.5">1958</text>
        <text x="1959.5" y="-0.5">1959</text>
        <text x="1960.5" y="-0.5">1960</text>
        <text x="1961.5" y="-0.5">1961</text>
        <text x="1962.5" y="-0.5">1962</text>
        <text x="1963.5" y="-0.5">1963</text>
        <text x="1964.5" y="-0.5">1964</text>
        <text x="1965.5" y="-0.5">1965</text>
        <text x="1966.5" y="-0.5">1966</text>
        <text x="1967.5" y="-0.5">1967</text>
        <text x="1968.5" y="-0.5">1968</text>
        <text x="1969.5" y="-0.5">1969</text>
        <text x="1970.5" y="-0.5">1970</text>
        <text x="1971.5" y="-0.5">1971</text>
        <text x="1972.5" y="-0.5">1972</text>
        <text x="1973.5" y="-0.5">1973</text>
        <text x="1974.5" y="-0.5">1974</text>
        <text x="1975.5" y="-0.5">1975</text>
        <text x="1976.5" y="-0.5">1976</text>
        <text x="1977.5" y="-0.5">1977</text>
        <text x="1978.5" y="-0.5">1978</text>
        <text x="1979.5" y="-0.5">1979</text>
        <text x="1980.5" y="-0.5">1980</text>
        <text x="1981.5" y="-0.5">1981</text>
        <text x="1982.5" y="-0.5">1982</text>
        <text x="1983.5" y="-0.5">1983</text>
        <text x="1984.5" y="-0.5">1984</text>
        <text x="1985.5" y="-0.5">1985</text>
        <text x="1986.5" y="-0.5">1986</text>
        <text x="1987.5" y="-0.5">1987</text>
        <text x="1988.5" y="-0.5">1988</text>
        <text x="1989.5" y="-0.5">1989</text>
        <text x="1990.5" y="-0.5">1990</text>
        <text x="1991.5" y="-0.5">1991</text>
        <text x="1992.5" y="-0.5">1992</text>
        <text x="1993.5" y="-0.5">1993</text>
        <text x="1994.5" y="-0.5">1994</text>
        <text x="1995.5" y="-0.5">1995</text>
        <text x="1996.5" y="-0.5">1996</text>
        <text x="1997.5" y="-0.5">1997</text>
        <text x="1998.5" y="-0.5">1998</text>
        <text x="1999.5" y="-0.5">1999</text>
        <text x="2000.5" y="-0.5">2000</text>
        <text x="2001.5" y="-0.5">2001</text>
        <text x="2002.5" y="-0.5">2002</text>
        <text x="2003.5" y="-0.5">2003</text>
        <text x="2004.5" y="-0.5">2004</text>
        <text x="2005.5" y="-0.5">2005</text>
        <text x="2006.5" y="-0.5">2006</text>
        <text x="2007.5" y="-0.5">2007</text>
        <text x="2008.5" y="-0.5">2008</text>
        <text x="2009.5" y="-0.5">2009</text>
        <text x="2010.5" y="-0.5">2010</text>
        <text x="2011.5" y="-0.5">2011</text>
        <text x="2012.5" y="-0.5">2012</text>
        <text x="2013.5" y="-0.5">2013</text>
        <text x="2014.5" y="-0.5">2014</text>
        <text x="2015.5" y="-0.5">2015</text>
        <text x="2016.5" y="-0.5">2016</text>
        <text x="2017.5" y="-0.5">2017</text>
        <text x="2018.5" y="-0.5">2018</text>
        <text x="2019.5" y="-0.5">2019</text>
        <text x="2020.5" y="-0.5">2020</text>
        <text x="2021.5" y="-0.5">2021</text>
        <text x="2022.5" y="-0.5">2022</text>
        <text x="2023.5" y="-0.5">2023</text>
        <text x="2024.5" y="-0.5">2024</text>
        <text x="2025.5" y="-0.5">2025</text>
        <text x="2026.5" y="-0.5">2026</text>
        <text x="2027.5" y="-0.5">2027</text>
    </g>
    <!-- A note on years. start on start year end on end year +1-->
    <g class="team">
        <path d="M 1950,3 L 1952,3" stroke="darkred" />
        <text x="1952" y="3">Alfa Romeo</text>
        <path d="M 1979,3 L 1980,3" stroke="red" />
        <text x="1980" y="2.5" class="med">Autodelta</text>
        <path d="M 1980,3 L 1986,3" stroke="darkred" />
        <text x="1986" y="3.7" class="med">Alfa Romeo</text>
    </g>
    <g class="team">
        <path d="M 1950,6 L 1951,6" stroke="black" />
        <path d="M 1952,6 L 1970,6" stroke="black" />
        <text x="1970" y="6">Cooper</text>
    </g>
    <g class="team">
        <path d="M 1950,9 L 2026,9" stroke="#D40000" />
        <text x="2026" y="9">Ferrari</text>
    </g>
    <g class="team">
        <path d="M 1950,12 L 1959,12" stroke="black" />
        <text x="1959" y="12">Maserati</text>
    </g>
    <g class="team">
        <path d="M 1951,15 L 1952,15" stroke="black" />
        <path d="M 1954,15 L 1978,15" stroke="black" />
        <text x="1978" y="15">BRM</text>
    </g>
    <g class="team">
        <path d="M 1958,18 L 1995,18" stroke="darkgreen" />
        <text x="1995" y="18">Lotus</text>
    </g>
    <g class="team">
        <path d="M 1954,21 L 1959,21" stroke="black" />
        <text x="1959" y="21">Vanwall</text>
    </g>
    <g class="team">
        <path d="M 1961,24 L 1964,24" stroke="black" />
        <text x="1964" y="24">Porsche</text>
    </g>
    <g class="team">
        <path d="M 1962,27 L 1993,27" stroke="black" />
        <text x="1993" y="27">Brabham</text>
    </g>
    <g class="team">
        <path d="M 1962,30 L 1964,30" stroke="black" />
        <path d="M 1967,30 L 1969,30" stroke="black" />
        <path d="M 1974,30 L 1976,30" stroke="black" />
        <path d="M 1985,30 L 1992,30" stroke="black" />
        <path d="M 1993,30 L 1994,30" stroke="black" />
        <path d="M 1997,30 L 1998,30" stroke="black" />
        <text x="1998" y="30">Lola</text>
    </g>
    <g class="team">
        <path d="M 1964,33 L 1969,33" stroke="white" />
        <text x="1969" y="33">Honda</text>
    </g>
    <g class="team">
        <path d="M 1966,36 L 1969,36" stroke="black" />
        <text x="1969" y="36">Eagle</text>
    </g>
    <g class="team">
        <path d="M 1966,39 L 2026,39" stroke="orange" />
        <text x="2026" y="39">McLaren</text>
    </g>
    <g class="team">
        <path d="M 1966,42 L 1999,42" stroke="black" />
        <text x="1999" y="42">Tyrrell</text>
        <path d="M 1999,42 L 2006,42" stroke="white" />
        <text x="2006" y="42">BAR</text>
        <path d="M 2006,42 L 2009,42" stroke="white" />
        <text x="2009" y="41.5" class="small">Honda</text>
        <path d="M 2009,42 L 2010,42" stroke="white" />
        <text x="2010" y="42.7" class="small">Brawn</text>
        <path d="M 2010,42 L 2026,42" stroke="silver" />
        <text x="2026" y="42">Mercedes</text>
    </g>
    <g class="team">
        <path d="M 1967,45 L 1973,45" stroke="black" />
        <text x="1973" y="45">Matra</text>
    </g>
    <g class="team">
        <path d="M 1969,48 L 1977,48" stroke="black" />
        <text x="1977" y="48">Frank Williams Racing Cars</text>
        <path d="M 1977,48 L 2026,48" stroke="navy" />
        <text x="2026" y="48">Williams</text>
    </g>
    <g class="team">
        <path d="M 1970,51 L 1978,51" stroke="black" />
        <path d="M 1981,51 L 1983,51" stroke="black" />
        <text x="1983" y="51">March</text>
        <path d="M 1987,51 L 1990,51" stroke="black" />
        <text x="1990" y="50.1" class="small">March</text>
        <path d="M 1990,51 L 1992,51" stroke="black" />
        <text x="1992" y="51" class="small">Leyton House</text>
        <path d="M 1992,51 L 1993,51" stroke="black" />
        <text x="1993" y="51.9" class="small">March</text>
    </g>
    <g class="team">
        <path d="M 1970,54 L 1979,54" stroke="black" />
        <text x="1979" y="54">Surtees</text>
    </g>
    <g class="team">
        <path d="M 1972,57 L 1974,57" stroke="black" />
        <text x="1974" y="57">Tecno</text>
    </g>
    <g class="team">
        <path d="M 1973,60 L 1983,60" stroke="black" />
        <text x="1983" y="60">Ensign</text>
    </g>
    <g class="team">
        <path d="M 1973,63 L 1979,63" stroke="black" />
        <text x="1979" y="63">Hesketh</text>
    </g>
    <g class="team">
        <path d="M 1973,66 L 1976,66" stroke="black" />
        <text x="1976" y="66">Hill</text>
    </g>
    <g class="team">
        <path d="M 1973,69 L 1981,69" stroke="black" />
        <text x="1981" y="69">Shadow</text>
    </g>
    <g class="team">
        <path d="M 1974,72 L 1977,72" stroke="black" />
        <text x="1977" y="72">Parnelli</text>
    </g>
    <g class="team">
        <path d="M 1974,75 L 1977.5,75" stroke="black" />
        <text x="1977.5" y="75">Penske</text>
        <path d="M 1977.5,75 L 1985,75" stroke="black" />
        <text x="1985" y="75">ATS</text>
    </g>
    <g class="team">
        <path d="M 1975,78 L 1983,78" stroke="black" />
        <text x="1983" y="78">Fittipaldi</text>
    </g>
    <g class="team">
        <path d="M 1976,81 L 1997,81" stroke="black" />
        <text x="1997" y="81">Ligier</text>
        <path d="M 1997,81 L 2002,81" stroke="black" />
        <text x="2002" y="81">Prost</text>
    </g>
    <g class="team">
        <path d="M 1977,84 L 1980,84" stroke="black" />
        <text x="1980" y="84">Wolf</text>
    </g>
    <g class="team">
        <path d="M 1977,87 L 1986,87" stroke="yellow" />
        <text x="1986" y="87">Renault</text>
    </g>
    <g class="team">
        <path d="M 1978,90 L 1991,90" stroke="black" />
        <text x="1991" y="90" class="med">Arrows</text>
        <path d="M 1991,90 L 1997,90" stroke="black" />
        <text x="1997" y="90" class="small">Footwork</text>
        <path d="M 1997,90 L 2003,90" stroke="black" />
        <text x="2003" y="90" class="med">Arrows</text>
    </g>
    <g class="team">
        <path d="M 1978,93 L 1980,93" stroke="black" />
        <text x="1980" y="93">Merzario</text>
    </g>
    <g class="team">
        <path d="M 1980,96 L 1991,96" stroke="black" />
        <text x="1991" y="95.5" class="med">Osella</text>
        <path d="M 1991,96 L 1993,96" stroke="black" />
        <text x="1993" y="96.5" class="med">Fondmetal</text>
    </g>
    <g class="team">
        <path d="M 1981,99 L 1984,99" stroke="black" />
        <text x="1984" y="99">Theodore</text>
    </g>
    <g class="team">
        <path d="M 1981,102 L 1986,102" stroke="black" />
        <text x="1986" y="102">Toleman</text>
        <path d="M 1986,102 L 2002,102" stroke="skyblue" />
        <text x="2002" y="102">Benetton</text>
        <path d="M 2002,102 L 2011,102" stroke="yellow" />
        <text x="2011" y="101.5" class="med">Renault</text>
        <path d="M 2011,102 L 2012,102" stroke="green" />
        <text x="2012" y="102.7" class="med">Lotus-Renault</text>
        <path d="M 2012,102 L 2016,102" stroke="darkgreen" />
        <text x="2016" y="102" class="med">Lotus</text>
        <path d="M 2016,102 L 2021,102" stroke="yellow" />
        <text x="2021" y="102" class="small">Renault</text>
        <path d="M 2021,102 L 2026,102" stroke="#318CE7" />
        <text x="2026" y="102" class="small">Alpine</text>
    </g>
    <g class="team">
        <path d="M 1983,105 L 1986,105" stroke="black" />
        <text x="1986" y="105">RAM</text>
    </g>
    <g class="team">
        <path d="M 1983,108 L 1986,108" stroke="black" />
        <text x="1986" y="108">Spirit</text>
    </g>
    <g class="team">
        <path d="M 1985,111 L 2006,111" stroke="blue" />
        <text x="2006" y="111">Minardi</text>
        <path d="M 2006,111 L 2020,111" stroke="darkblue" />
        <text x="2020" y="110.5" class="med">Toro Rosso</text>
        <path d="M 2020,111 L 2024,111" stroke="steelblue" />
        <text x="2024" y="111.7" class="med">AlphaTauri</text>
        <path d="M 2024,111 L 2026,111" stroke="darkblue" />
        <text x="2026" y="110.5" class="med">RB</text>
    </g>
    <g class="team">
        <path d="M 1985,114 L 1990,114" stroke="black" />
        <text x="1990" y="114">Zakspeed</text>
    </g>
    <g class="team">
        <path d="M 1986,117 L 1992,117" stroke="black" />
        <text x="1992" y="117">Automobiles Gonfaronnaises Sportives</text>
    </g>
    <g class="team">
        <path d="M 1987,120 L 1992,120" stroke="black" />
        <text x="1992" y="119.5" class="med">Coloni</text>
        <path d="M 1992,120 L 1993,120" stroke="black" />
        <text x="1993" y="120.7" class="med">Andrea Moda</text>
    </g>
    <g class="team">
        <path d="M 1987,123 L 1992,123" stroke="black" />
        <text x="1992" y="122.1" class="small">Larrousse</text>
        <path d="M 1992,123 L 1993,123" stroke="black" />
        <text x="1993" y="123" class="small">Venturi</text>
        <path d="M 1993,123 L 1995,123" stroke="black" />
        <text x="1995" y="123.9" class="small">Larrousse</text>
    </g>

    <g class="team">
        <path d="M 1988,126 L 1993,126" stroke="black" />
        <text x="1993" y="126">Dallara</text>
    </g>
    <g class="team">
        <path d="M 1988,129 L 1991,129" stroke="black" />
        <text x="1991" y="129">EuroBrun</text>
    </g>
    <g class="team">
        <path d="M 1988,132 L 1990,132" stroke="black" />
        <text x="1990" y="132">Rial</text>
    </g>
    <g class="team">
        <path d="M 1989,135 L 1991,135" stroke="black" />
        <text x="1991" y="135">Onyx</text>
    </g>
    <g class="team">
        <path d="M 1991,138 L 2006,138" stroke="yellow" />
        <text x="2006" y="137.1" class="small">Jordan</text>
        <path d="M 2006,138 L 2007,138" stroke="black" />
        <text x="2007" y="138" class="small">Midland</text>
        <path d="M 2007,138 L 2008,138" stroke="darkorange" />
        <text x="2008" y="138.9" class="small">Spyker</text>
        <path d="M 2008,138 L 2018.5,138" stroke="orange" />
        <text x="2018.5" y="137.1" class="small">Force India</text>
        <path d="M 2018.5,138 L 2019,138" stroke="black" />
        <text x="2019" y="138" class="small">Racing Point Force India</text>
        <path d="M 2019,138 L 2021,138" stroke="pink" />
        <text x="2021" y="138.9" class="small">Racing Point</text>
        <path d="M 2021,138 L 2026,138" stroke="#004225" />
        <text x="2026" y="138" class="small">Aston Martin</text>
    </g>
    <g class="team">
        <path d="M 1993,141 L 2006,141" stroke="white"/>
        <text x="2006" y="140.5" class="med">Sauber</text>
        <path d="M 2006,141 L 2010,141" stroke="grey"/>
        <text x="2010" y="141.7" class="med">BMW Sauber</text>
        <path d="M 2010,141 L 2019,141" stroke="white"/>
        <text x="2019" y="140.5" class="med">Sauber</text>
        <path d="M 2019,141 L 2024,141" stroke="darkred"/>
        <text x="2024" y="141.7" class="med">Alfa Romeo</text>
        <path d="M 2024,141 L 2026,141" stroke="limegreen"/>
        <text x="2026" y="140.5" class="med">Sauber</text>
    </g>
    <g class="team">
        <path d="M 1994,144 L 1996,144" stroke="black" />
        <text x="1996" y="144">Pacific</text>
    </g>
    <g class="team">
        <path d="M 1994,147 L 1996,147" stroke="black" />
        <text x="1996" y="147">Simtek</text>
    </g>
    <g class="team">
        <path d="M 1995,150 L 1997,150" stroke="black" />
        <text x="1997" y="150">Forti</text>
    </g>
    <g class="team">
        <path d="M 1997,153 L 2000,153" stroke="black" />
        <text x="2000" y="153">Stewart</text>
        <path d="M 2000,153 L 2005,153" stroke="darkgreen" />
        <text x="2005" y="153" class="med">Jaguar</text>
        <path d="M 2005,153 L 2026,153" stroke="darkblue" />
        <text x="2026" y="153">Red Bull</text>
    </g>
    <g class="team">
        <path d="M 2002,156 L 2010,156" stroke="white" />
        <text x="2010" y="156">Toyota</text>
    </g>
    <g class="team">
        <path d="M 2006,159 L 2009,159" stroke="black" />
        <text x="2009" y="159">Super Aguri</text>
    </g>
    <g class="team">
        <path d="M 2010,162 L 2013,162" stroke="goldenrod" />
        <text x="2013" y="162">Hispania</text>
    </g>
    <g class="team">
        <path d="M 2010,165 L 2012,165" stroke="darkgreen" />
        <text x="2012" y="164.5" class="med">Lotus</text>
        <path d="M 2012,165 L 2015,165" stroke="green" />
        <text x="2015" y="165.7" class="med">Caterham</text>
    </g>
    <g class="team">
        <path d="M 2010,168 L 2012,168" stroke="white" />
        <text x="2012" y="168">Virgin</text>
        <path d="M 2012,168 L 2016,168" stroke="black" />
        <text x="2016" y="167.5" class="small">Marussia</text>
        <path d="M 2016,168 L 2017,168" stroke="black" />
        <text x="2017" y="168.7" class="small">Manor</text>
    </g>
    <g class="team">
        <path d="M 2016,171 L 2026,171" stroke="white" />
        <text x="2026" y="171">Haas</text>
    </g>
</svg>